<?xml version="1.0" standalone="no"?>
<!DOCTYPE svg PUBLIC "-//W3C//DTD SVG 20010904//EN"
 "http://www.w3.org/TR/2001/REC-SVG-20010904/DTD/svg10.dtd">
<svg version="1.0" xmlns="http://www.w3.org/2000/svg"
 width="512.000000pt" height="512.000000pt" viewBox="0 0 512.000000 512.000000"
 preserveAspectRatio="xMidYMid meet">

<g transform="translate(0.000000,512.000000) scale(0.100000,-0.100000)"
fill="#000000" stroke="none">
<path d="M1214 4925 c-34 -7 -81 -23 -105 -35 -30 -15 -200 -178 -541 -518
-436 -436 -500 -504 -524 -555 -38 -84 -51 -171 -36 -249 26 -137 27 -139 564
-675 536 -534 528 -528 665 -553 271 -48 523 203 476 475 -18 105 -55 165
-187 302 l-118 123 942 0 c901 0 946 -1 1039 -20 419 -85 742 -388 858 -806
26 -92 28 -113 28 -284 -1 -159 -4 -196 -23 -266 -111 -410 -400 -699 -810
-812 l-97 -27 -1355 -5 c-1268 -5 -1358 -6 -1400 -23 -198 -79 -306 -256 -278
-459 24 -177 168 -321 348 -349 42 -6 534 -9 1385 -6 1445 3 1366 0 1610 63
567 147 1042 543 1282 1069 83 183 124 316 160 520 23 138 24 452 0 590 -76
436 -252 780 -552 1080 -316 317 -694 501 -1148 560 -98 12 -269 15 -1029 15
l-910 0 94 98 c105 111 144 178 160 276 37 225 -119 439 -348 476 -71 12 -73
12 -150 -5z"/>
</g>
</svg>
